<?xml version="1.0" encoding="utf-8"?>
<!-- Generator: Adobe Illustrator 23.0.6, SVG Export Plug-In . SVG Version: 6.00 Build 0)  -->
<svg version="1.1" id="Layer_1" xmlns="http://www.w3.org/2000/svg" xmlns:xlink="http://www.w3.org/1999/xlink" x="0px" y="0px"
	 viewBox="0 0 500 500" enable-background="new 0 0 500 500" xml:space="preserve">
<line fill="none" stroke="#000000" stroke-width="3" stroke-miterlimit="10" x1="31.58" y1="26.41" x2="51.78" y2="242.48"/>
<line fill="none" stroke="#000000" stroke-width="3" stroke-miterlimit="10" x1="32.61" y1="455.95" x2="51.78" y2="242.48"/>
<line fill="none" stroke="#000000" stroke-width="3" stroke-miterlimit="10" x1="238.83" y1="435.74" x2="32.61" y2="455.95"/>
<line fill="none" stroke="#000000" stroke-width="3" stroke-miterlimit="10" x1="447.64" y1="455.95" x2="238.83" y2="435.74"/>
<line fill="none" stroke="#000000" stroke-width="3" stroke-miterlimit="10" x1="426.91" y1="241.44" x2="447.64" y2="455.95"/>
<line fill="none" stroke="#000000" stroke-width="3" stroke-miterlimit="10" x1="448.16" y1="27.97" x2="426.91" y2="241.44"/>
<line fill="none" stroke="#000000" stroke-width="3" stroke-miterlimit="10" x1="239.35" y1="49.73" x2="448.16" y2="27.97"/>
<line fill="none" stroke="#000000" stroke-width="3" stroke-miterlimit="10" x1="31.58" y1="26.41" x2="239.35" y2="49.73"/>
<line fill="none" stroke="#0000ff" stroke-width="3" stroke-miterlimit="10" x1="238.83" y1="435.74" x2="239.35" y2="49.73"/>
<line fill="none" stroke="#0000ff" stroke-width="3" stroke-miterlimit="10" x1="51.78" y1="242.48" x2="426.91" y2="241.44"/>
<line fill="none" stroke="#0000ff" stroke-width="3" stroke-miterlimit="10" x1="211.37" y1="271.49" x2="239.05" y2="268.9"/>
<line fill="none" stroke="#0000ff" stroke-width="3" stroke-miterlimit="10" x1="211.89" y1="210.35" x2="214.48" y2="242.03"/>
<line fill="none" stroke="#0000ff" stroke-width="3" stroke-miterlimit="10" x1="263.7" y1="241.89" x2="266.29" y2="272.53"/>
<line fill="none" stroke="#0000ff" stroke-width="3" stroke-miterlimit="10" x1="239.13" y1="213.46" x2="265" y2="211.91"/>
<line fill="none" stroke="#0000ff" stroke-width="3" stroke-miterlimit="10" x1="193.75" y1="242.08" x2="211.37" y2="271.49"/>
<line fill="none" stroke="#0000ff" stroke-width="3" stroke-miterlimit="10" x1="239.09" y1="287.55" x2="266.29" y2="272.53"/>
<line fill="none" stroke="#0000ff" stroke-width="3" stroke-miterlimit="10" x1="284.42" y1="242.74" x2="265" y2="211.91"/>
<line fill="none" stroke="#0000ff" stroke-width="3" stroke-miterlimit="10" x1="239.15" y1="195.33" x2="211.89" y2="210.35"/>
<line fill="none" stroke="#ff0000" stroke-width="3" stroke-miterlimit="10" x1="211.37" y1="271.49" x2="239.09" y2="287.55"/>
<line fill="none" stroke="#ff0000" stroke-width="3" stroke-miterlimit="10" x1="284.42" y1="242.74" x2="266.29" y2="272.53"/>
<line fill="none" stroke="#ff0000" stroke-width="3" stroke-miterlimit="10" x1="239.15" y1="195.33" x2="265" y2="211.91"/>
<line fill="none" stroke="#ff0000" stroke-width="3" stroke-miterlimit="10" x1="193.75" y1="242.08" x2="211.89" y2="210.35"/>
<line fill="none" stroke="#ff0000" stroke-width="3" stroke-miterlimit="10" x1="266.29" y1="272.53" x2="211.89" y2="210.35"/>
<line fill="none" stroke="#ff0000" stroke-width="3" stroke-miterlimit="10" x1="265" y1="211.91" x2="211.37" y2="271.49"/>
<line fill="none" stroke="#ff0000" stroke-width="3" stroke-miterlimit="10" x1="431.6" y1="194.29" x2="265" y2="211.91"/>
<line fill="none" stroke="#ff0000" stroke-width="3" stroke-miterlimit="10" x1="266.29" y1="272.53" x2="431.45" y2="288.4"/>
<line fill="none" stroke="#ff0000" stroke-width="3" stroke-miterlimit="10" x1="211.37" y1="271.49" x2="197.42" y2="439.8"/>
<line fill="none" stroke="#ff0000" stroke-width="3" stroke-miterlimit="10" x1="266.29" y1="272.53" x2="281.88" y2="439.91"/>
<line fill="none" stroke="#ff0000" stroke-width="3" stroke-miterlimit="10" x1="265" y1="211.91" x2="282.42" y2="45.24"/>
<line fill="none" stroke="#ff0000" stroke-width="3" stroke-miterlimit="10" x1="211.89" y1="210.35" x2="196.13" y2="44.88"/>
<line fill="none" stroke="#ff0000" stroke-width="3" stroke-miterlimit="10" x1="47.28" y1="194.37" x2="211.89" y2="210.35"/>
<line fill="none" stroke="#ff0000" stroke-width="3" stroke-miterlimit="10" x1="47.64" y1="288.64" x2="211.37" y2="271.49"/>
<line fill="none" stroke="#ff0000" stroke-width="3" stroke-miterlimit="10" x1="265" y1="211.91" x2="263.7" y2="241.89"/>
<line fill="none" stroke="#ff0000" stroke-width="3" stroke-miterlimit="10" x1="211.89" y1="210.35" x2="239.13" y2="213.46"/>
<line fill="none" stroke="#ff0000" stroke-width="3" stroke-miterlimit="10" x1="214.48" y1="242.03" x2="211.37" y2="271.49"/>
<line fill="none" stroke="#ff0000" stroke-width="3" stroke-miterlimit="10" x1="239.05" y1="268.9" x2="266.29" y2="272.53"/>
</svg>
